<mxfile host="app.diagrams.net" modified="2020-03-19T09:04:20.597Z" agent="Mozilla/5.0 (Macintosh; Intel Mac OS X 10_15_1) AppleWebKit/537.36 (KHTML, like Gecko) Chrome/80.0.3987.132 Safari/537.36" etag="UzgKAz9nNZd0mXyVn1yD" version="12.8.8" type="github">
  <diagram id="354gNG-u2UjZDAYhhaxQ" name="Page-1">
    <mxGraphModel dx="1437" dy="904" grid="0" gridSize="10" guides="1" tooltips="1" connect="1" arrows="1" fold="1" page="1" pageScale="1" pageWidth="827" pageHeight="1169" math="0" shadow="0">
      <root>
        <mxCell id="0" />
        <mxCell id="1" parent="0" />
        <mxCell id="HYDjPXDBDwbA59rt-lU1-1" value="mysql" style="outlineConnect=0;fontColor=#232F3E;gradientColor=none;fillColor=#3334B9;strokeColor=none;dashed=0;verticalLabelPosition=bottom;verticalAlign=top;align=center;html=1;fontSize=12;fontStyle=0;aspect=fixed;pointerEvents=1;shape=mxgraph.aws4.rds_mysql_instance;" parent="1" vertex="1">
          <mxGeometry x="226" y="661" width="78" height="78" as="geometry" />
        </mxCell>
        <mxCell id="HYDjPXDBDwbA59rt-lU1-2" value="redis" style="aspect=fixed;html=1;points=[];align=center;image;fontSize=12;image=img/lib/mscae/Cache_Redis_Product.svg;" parent="1" vertex="1">
          <mxGeometry x="414" y="664.5" width="84.52" height="71" as="geometry" />
        </mxCell>
        <mxCell id="HYDjPXDBDwbA59rt-lU1-5" value="" style="shape=image;verticalLabelPosition=bottom;labelBackgroundColor=#ffffff;verticalAlign=top;aspect=fixed;imageAspect=0;image=data:image/png,iVBORw0KGgoAAAANSUhEUgAAAGoAAABqCAYAAABUIcSXAAAgAElEQVR4Ae19d1hVV7q+f9zfvXfuTO5MkpuZSTHJpFrSY6LGxF5iSzTGlmLDhhWsqCiCIjZ6ld577016L9JBQEFEBSwISD8c3t/zrsPGI7Emmhmf4TzPfvY+u7HP9+73+971rW8thmDw81RYYMhT8ZSDD4lBoJ6Sl+CpA6q3t/cO0z7o+x0nP+KXgfd+xMsf6+lPHVCP9df/xpv9nkA+9UDRWNKibHdpn7RWPiZt8xg/yudI29Ix6dx/9vqpBYqGlMvlwsg9PT1iWzKm8rG7GV7aJ10nk8nAbWlRvr6zs1O6rfhb/CKdJx3g+U/689QCRZAkoGjo7u5uNDQ0oK2tTRiU+6RzpPMkY9KwPE4QpGu5lhbpOp7Hczo6OsSlt27dEn+H+7q6uu5gonTvJ7V+KoGiIWmo9vZ2tLa2inVjYyMcHBxQXl4uwKJRW1pahGHJAOmtl0DIy8uDk5MTSkpKBBgEWmIKz+F9uS8sLAzJycnie2VlpVinpKSgqKhIHOffJXC85kl+nkqgaPQrV67g4MGD2LZtG3bv3o29e/di7NixUFVVxY4dO6CpqQl1dXVh5Js3b/YbUmLemTNnoKamBi0tLVRXV6O+vh4Elx++BGRXc3Mz1qxZA1tbW5w9exabN2/GpUuXYGRkhOjoaFRUVMDS0hJXr14V5w8CNcACNOLly5fx008/wd/fXxjr5MmT8PT0RFBQEKKiohAQEIAff/wRoaGh/SDxGhUVFSxYsADfffcdlixZgilTpuDbb78V99qyZQsIKgGjGy0uLsbPP/8MPT09ENjJkycjIyNDvAAEiH+PLwXvyxfgSX6eSkbRIBcuXICxsTGysrIwd+5cTJs2DWvXrsW6deswb948uLm5wdzcHImJicIF0jXV1tYK9kVERCAtLQ10YVwIQlJSEvbt2yeAoiujuzt+/Lhg5qZNm8S9NmzYIBjGF2DFihVYuXKlOIfs5svDv0G2S272cQL3VAJFQzCeMM7Mnj0bEyZMEOzgG75x40bxnQA0NTX1G48ig+6NYJJ9pqamMDExEWsCoq2tDQJCo9PgBIvH6d5cXFywfft2HDhwQFy7f/9+4TJ37tyJI0eOgLGLQPGZeO2TAOypA4og0SjXrl2Du7s7vL29cfr0aeHOPvnkE3zxxRfw8fER8UUSEzyfcaempgarVq0SzDEzM8OpU6cEKw0NDXHixAkBBuMN3RivZfyKiYkBj+vr6wt3yr9HRu3Zs0d853EylX+D13E9CFRf45TsoMtj7Fi0aBG++uorAZS9vb2IGRQVc+bMEW7Lz89PsIMMoSCggSkeCBz3caH8poIkONyWxARdIe95+PBhsXz55ZfiRXjhhRfw0UcfCeaSoXwBniRIdKFPJaMoiSMjIwUj6MK+/vpr4bbIALojgscgzzhFsUGpzbec4oAqkYDwzb/fQsVHl2dtbS2UJF3c8OHDRYzi35gxYwbISt5PAkpyfU8iTj2VQNEgUhuqsLBQuKzU1FQRs/idRqUqu3HjhmAHYxXBCQwMFG6PwA0ESWIE9/P+PIeig4ATIL4MZBFdIFm2evVqIUjINgobXs/rJJC4fpyfpwoo6ceTHZKhMzMzsX79etHY9fDwEG853RHjiiS1aUSKBEpznkN3x3vcbyFIbENRRdJ9kp0jR47EoUOHBNN27dolWE0g2baiu+T9BoFSej2VDUzlp6GhARsbG9GGYrAno2hYnkdAGXfYtqJaO3fuXL9Rle8zcJsMrKurE9cS2NjYWEyfPl3IfcbH+Ph4wTYyl25yIJukl0rpsX/T5lPFKOmX0giSYWkkNk7JGhqUbzZlOOMY99FFch+/k1Xclt563kP5XtI9pf3Xr1/vB5pqkG0yulFeQ9dIccKXQGKodF+uH/fnqQdKcoFcKxtaeb/yMWVj/pZt5b9FNkngKt/zcYL11AJFgygba+D2vYCSDCqtlQ37uLf/7YGiAZSNOhAkfudbrrxI5yhf96S3B4FSsoBk7IEMkYBRXkvn3m098Pq7nfOo+5Qe8zdvPpWuT/lXP6rx7na+BCbve7fjv3af8nP+1u37A0Xx8igCRpx/9wvk6MXDLr/1RykMTqPfudztvjyHfX5clMVaezvTSh24ebMZ9fVXcetWG7q6mDNkg7gXXV3dfYqPqSg2dulu2Rzo6UtLdaGtrQPd3WwE3+0vP2jfnR2Rjx+oe/z9hwWJ5z2Oz0CQ7mUs7idINH5HR5eQ9C0traiqqoK3ty/27duPWbPmQE1tG3x8/FBeXilAkoDhuTdu3MSFCzWIj0+Ep6c38vIKxDkEsL2dTYbuXwHWnXa4P1C/0mKSq1C+/PcGSvlvP2ibLFAwRY6qqmocO3YCX389C++99wGWLv0R1ta2WL16Ld544y38+OPPiIqKEeBUVJxDQEAQ1q/fgK++moDPPx+DDz/8WGwfOqSLs2cr0NjIrhb2UUnsvhOABz2bdPyRgeKfud+fUjzQ7c4zCTRe87BgSQ/35NeU+L3CPXV306XJ4ejojL/97UUsX74SMTGnBYPImHPnqpCcnIqNGzdj7NhxAsjPPhstthcvXgodncM4fTpenK+vb4jJk6fiu+++h6urO65cqUdrKxveCnf5a37XQwJFw7MVr/CbND7dhawH6Jb1iqWrW96/3S3vRY+8F3K6FfEmKaCVQH4QYL/mh/zaa8gmSfHRmDTyF198CS0tbYSHR4r4dP16Iy5frkNNTS2qqi4gKChEsIzHi4pKBIiFhcVIS8tAcHAofH39sWuXhnCXc+d+CwLp7x8o7sW/IX1ox4f9PAJQPYJLvHV3Ty9aO3pw81Y36m+0orauEZfrm3HtZjua2mRo7e5FR08vugkSmdSXc5PY9a8EFA3FgM94wsXU1ByzZ89FaGg4jh8/KYxeV9eAa9du4OrV67h48ZIQCZWV51FbexlNTS1iv729I06eNMBPPy3D1KnTcfjwEezevUcAr66+HWPGfIENGzYJYAmWZAsJLMX32+5xIIYPBErcQC5D660W4RpaO2SIT8mFgbkTVmzYjdnfr8KYCXMxfvpCLFqxFdsPnIBHUDTKquvR0tGLto5uBbuUuqh7qLL62HY30B72LXsc59EgFBIymVyICRMTMwFUUlIK4uISYGxsChcXN5AxZBZVoASO9J37ysrKhds8cOAgtmxREwLkhx9+wp49+3DwoA4Ys+gKyVY9vWPIzs7tz0Xyd/AZlBdFCLmtRO8LlOS2pFxWQVEZdmoexqgJs/HHl0bghbdG4/UPJ+PdMbPxxqfT8cK74/CHl9/H829+isUr1RB+OgN1jbfQwWDd3SMA6+mV418NKMYpunLKcRbMkFEhIWHw8vJBaelZIRgYg2Jj44QLJDCMWwSM8YfbdItkXWpqOgg2waAAmTZthohrGhp7BVhHjhzF/PkLMGXKNMHA6uoaoQwlGS+B9RBAKSKJnAUkfbK1s7MLEVFxmPPdD3jhHx9g9Myl+H7DAahqW2LbCRdomHhDXd8Vqro2WLXfBBMWb8BLI77E2x9PgK6+Jc5frMetjm50MmD3ypXYdHeB8TiY8rD3kAxCoDo6FAUtBCohIRmmphbQPayHlJR0pKdnwcnRBadO2Qh2sW1FRUewbt1qFUxrbmbRZyto/IiIKBgYGEFb+xBUVNbgm2/mYdu2Hdi/X0uASDe5ZMkPWLRoCZydXUX8ovd6aKB6exWxiD+0WyZHZ5cc0bGJeOf9z/HXf7yPpRv2QeeUH3QcwrDPOhRaTrE45J4EHfc4HHQ5DU27CGjahGDtQXMMGzcXf3l5OA7oGeNSQyNklKl9qvFuLk/a97BGflznSWCxHUU2zJnzDWJj4uHu5o2TJ4xwYL8O0lKzUFFRJdpKa9eyo9JJuMILFy4KwKgam5qaBTvYdmppuSViGNtVmpoHYGhoLMTFjh27BCvJPrpLMuztt9+Fh4eXyE3yPnxp+JGei9u/cH29cplQd3R7nTI5KmvqMGXOQvzl5Xcxf/VOaJp7Qcs2BPvtI6HtmoRjfrk45psLPd9s6HlnQ9crE9puSdhnHQaVvSZ4f/x8/P2tT+HiFdoXr+T3l+lE8nf8SMbgWhmo1JQMuDh7ICQ4AuFh0bAwt4a3l7+ILZcuXRENW7o3KkDGL6rC1tY2EevogdgPxr4qiWGU9nSRPOfGjUbB3ubmFuTknMG3384XbpB/X3oemkB5ux8oSTQQKKHS5MC15nZs23cIL44Yg9kqu6Bp7gtt23AccYmHgW8ODAMLYBBUDIPAYugHFOGkfyGO+uVDzz8P2s5J2GcRjDWapnhlxFf4YtI8FJacR0dnD2QUFuiBArI+YaGUYvodcer/U/z9QvWZWGLunPlIT8uGk6M7ggLDcaH6MjIzzsDN1QtmppaiPVVdfRGlJeUCKAsLK+HOKD7oDhlvCBxjH+/JOEaWEQi2pRobb+L8+fPIzc0V3fxTp04TpQPsmrnXRwkoOeQ93ZCA6ujuRU7RWXz05TS8+cVsqBl64qBDNA45ncYJr3SYBRbCMrQUVmHlOBVWCctwxWISehZ6Pmeg55GFIy5J2Gfij7nLduL5oe/DyMIezYxVrIGTdwughLujAvyXAuo74epcnD0FUBdr6tBQfxMV5dUIDYmErq4e7O0cUVhQKrIPdGFMGzF+0cW5u3uioKBIiAu6Rh5TxLI2ARLTU6zOZXm0l5eXKKtm0cwjAUWwenpk6OiSw9bNB//1wquYvmIbtpv7Q9s5AXruqTAOyMOp8FLYx1TCKeY83E5fgNPpajjFVsMm6hxMgkpw0jMXRxyToWMVBTVtW7zwj1GYvWgZrjQ1o6WzA53yLnT39okLJZAI2JP70Pnf/f53MuqXQNXX3cD5cxdxqbYexcWlogFL18dMBoUD3eH589U4f75KKMatW9XBFFN+fiEyMrJEW4vtsEuXLqO0tBQsyvlVQNEhivgkZzVND1o7Zdh1QA//8dzr+HHnUWjYhEHXPRXHvNJgGpwHu+izcIk7B5+UWgRlNcA/4xK8k2rgFF2BU2ElMPYhUCk4ZBMPTeNAvP3513h15Cicr2tAS3d7H1BKrFIC68kBde87K4CSwVS4PgKVDRdnLwQHRqHmQj0a6ptws7EVTTdbBTso0SnJmXE4cUJfLAkJSYJFdHvMEUpMYxwiSHSBrKotKytDdnZ2P1BTp04VZWgPxag7gZKjtbMbKpt34//e/ARrDprioGscjnqn46RvOixCz8A+uhjuCRUISK9FaG49grIuwSe5Cs4xpbAOLYCJ3xkc9ciCln0SDpyKwMQF6/DayM+RlJWLdnk3uiFDj4hTPQq5rpQLvLc5H+eRO5nFwN3ZeRuo1JQsuDh7Iyggug+oZjTd7EBbq6L7gqKAhS6U6bm5eSKTwbQT1dzFi7VidEhRUTGys3OQmZmF+voG1NZeEsWaBIrVU4+FUbc6u7Bw+Qa8OWoytp50wiGvZBzzy4B+YBbMQnLhEFsEz6RKBGTUICy3DsFZF+GXVAmXmBJYh+TBxC8Xx31yccAlBfttozHxe1UMfXcU0rLz0CWny1MsMnm3om31uzPqthskm/hpb++CkaEZ5s75DgTK1YVA9TGqrhnNTR1ob+sWKSRF2+mmUHINDddERp3MIssuX74iRntwsJvEHA7NYSk1RQRdX35+/j2B4vNIzyS9mv1ioi8rh145JaIcbV3dWL1FAy+88znWHLbCXtfT0PZMwlGfVFhGFMAl/iw8E+n6quCfUYOAzBp4JZ2Hc0wZrEMKYOJ/RgCl5ZQETatwfP71z3jrgy9QfPY8Onq6IZN3QsY41dPV1wi+ncSVHu73WBMjtlvkPUBXZ49oN82a+Q3i41Lg4e4LP99QBaMEUJ3oaFfkBRVtpVYQJOb8mBJi3xXdG4Hi+KuSkiLk5GQhMzMdly5dRGlpsVi4nxW9yoziCBO6PgIkZYJ+Ic/5PimaonL0ytnJJRdpn+Om9vjPF97C0t0nsN06FHscYgSrrKKKYB9bBtuoEjjFlcMt+TzcEs/DIbYcthFlsAougYlvLo64JEPHIQ47DT3x+keTMHbaXFxouIZ2uQyd8o5+oLqZraDrY97tTo/0xLGiMUQ2QAbcamnHEd3jmD9vEZIS0+HlGQB/34j+GNXc1ImuTg5L5fhfjvh4AFClhTiTl4Ws7DTUXqpGaVkhCovyBYDFxYVIT0//heqTEthSRr+P7IoGrwQUsxK9vd1CTHTI5PALT8AfXngLXy7aiL22EdhnH4vj/tk4EZAD04hCmEUU41RMGeziymFzugIWUeUwCyuHcWAp9L1zcdghAXr2p6GiYYjn//ExVqxXw+XGJhGj2mVt6Okls5i0VQD0zwCKbR32Q7Xe6kBnhwwG+iaYMX0O4uOS4e7mg8CAcNRcUMjzlmaeo2AU20QSUMyoD2TU/PnforAoD3n5BCoVF2rOoaAwF3l5uSgszBcL6+U5poujHskoqSyazFKwStHhyLd1CKmmaMOwFlsmXB/7aDpkvahuaML4uT/j/0ZOwnpdF+w0D8Vh73TsdY7H0aAzOBlWBP3wYhhHlcIosgQnw0pxPOgsjvoW47B7JnTsTkPLPBifTP0Bz7z0LvzD43C9pR3tMsalbnTJOtAjYtRtt0ew/hmf9rYutLV2wtDAFPPnLRTZCEcHV4SFRqO66hIa6hvR0twuYhTdHhfm9igmCFRWVg727tUUDV1K8HnzvkFObgbyC7IFo6qqK5CZlYqs7Azk5maLhYPtXF1dMX78eDFykZW9ZBLXim0loOhvmICVMcCzEcr4QaC6geq6m/h+pTr+65XP8MFsVWhYRWKndTS0vDJw0DcHR4ILoBdciKPBhdALKsCRgCIc8i3CQfdcaDokY5dZCL5dr41n3xiNhSvUcOUaR6kzk94FeQ+HvfDBFG0pZhjZLv89gZLiAY3e2dGNrMwzWLL4J3w3fxFSUzJFCsnVxUsJKIWY4PksXLk3UJfw7bdzkZObLhiVnZOOynNlSEtPQkpqAlJTE5GamoyEhASEh4eLIaYLFy4UWQqpPJtA0SWzr5bub0hvXz9Rdw/pJoO8R472NhlqL93EinW7MXT4eDw7bAqGfb0eKkc8sdEkFGo2MdjhkABNjwxo+eRA2zcX2t7Z0PLMgaZrJnZYx2O7eRQWa1jgrx/OxDNDP4VbYCKuN3eita0LnR2daG+5hfa2dvTIeyBjX4yS+yNYImYpKUHlzIXy9qOwT1lJ3S7OlIu0j421HaZPnylqIjaobkFOdj6ys/Lg5OgGP98g1F5kW+qGcJFsQ1271oi6K1eFeFBmFIVFTc1FzJkzSwCTeyYD2TlpAqik5DjEno5EfEIMklMSkJ3NRG85UlNTsGaNCt5//z3s3auBlJRkNDc3CVcoCYwhvaLESQYCxc6zW63tCAmLw6djpuPZVz7Eax/PxFxVPSzca4PvNGzw8xEPbDALh5pNLNRtT2OXYyI0nJOh4ZCE3XaJ2HEqDtssYrBBPwjT1h7BsyNn4A+vfIq/vzMWJ82dceVqM3pkvZDL5OjplkGmDJRyh+KAtJIyOMrbjwKU8rkEjW9tZma2qI+YMGGSSA2x51ZHW1ewqay0UoDFHJ+Xp5/ISlDVsa1UV3cV16429rs+KUYRNFYkESgBRk4ayKiKylIBUGRUKAhYXn42qqvPo6mpEQ0Ndbhy5SJ8fLwwbdpkTJ4yAcbGhigvPysGI/A5h5BBdEXtXV3o6JbDNzgSn341Cy8PG4tpP27D8n0W2GIUiE2moVhvHIyfjnhgoZYjFmu7YNlRL6zRD4CqYTDW6wdj3ckAqBz1wY9azlh6wAXLD7tjla4LJq/UxOujZuGld8fipzXbkJaZLxqOsu4e8XL0dyRKDCJITxgoxoKSkjKwpoELK4uYUWCGm/HGwvwUAgNCBbPIrsiIWJyyskV0dKzob2L3PEFTZBtuy3Pm9qqrL2DWrK+RlByPjMxk4QLPlhfjdFwUwiOCkZ6RLMTFtWsNaG9vBdetrezXahaK0NbWWrjOOXNmi/HIzMIPYYVKe0c7bra1IiAqGiO/nIbnh4/FygOmWLrPDFvMg7HRLAQ7HRKw2z4BexwSoWYZKQBbpOmAH7Sc8eNBF/yg5SrAWXLABatOBEDdJhHbbROxxTwS2y0jsPaQI778ThX/789vYPaCVcjILkNLS7fo7xLthb4snGDL7wAU2XXmTD5YScR0D5OodGmMPcyAs4jFzs4BYWER4jx2BvJ8lo4ZGZmI7gmyj4BxIbjM7/E8Jl1nzpyB6OgIRMeECaCKivMQGhYoYlTD1cvo7GoVwBCctjZ2OLITslEAVl9/RQCmorJKDKbjOK0hvT096JbJkF1QhEnfLsQz73yG2ZsOYvVJV6wx9sNq0yBssIrCDro2h0TscUyCpnMK9jomQ8MuAXsdkrDPMRl77FOwxyEVux1ToeGahX0eZ7DHPRc7HNOx2SIG6ubh2G7oi8kLN+PFt8Zg1vyVKCipESxWtBXYkuvrq2LbRimlpOzqBm4ru7NH2abrO3MmD+PGfSVKvdgTS7ZQxZFZXDPeODm5wMbGTrhIZsHZNc8uedb+WVqeEl3vLCVLT88UHYRMzJ47dx4zZkxDVHS4AIryvOxskWhTEaTGxqu42XRdgEOgpIVg3bhxDRcuMLueI0ZSUmQogJL3oKOzG3t0juK5Nz7EZwtVsULPGWq2UfjmgB0WHPaAmkOSAGqvSwr2OadAyyUNOq4Z0HbPxGGvHOh65+GwVz50fAqg5ZkHTY887HE/g52uOdjunA11+zRstozDRsMgbD7ujulLt+PPL3+CNZv340ZLp6LXV5Sj9Yhtqr8nCRRB4pKTk9tfbMJaB3NzzsbiLXpu2UaiW2Pjlp2D7InlmkWVZBtBJGCsNCLzWEW7c+duUTpWUVGJ6dOnIiIyFJFRIcLVna8qR33DJcGkpqbr6O7u7AeouZmzxSiYdfHiBYSHh8LPzwdr1qwGgeLQ0yFdXR1ISc/FOx9+ieFfzoPKYReoWcRgrX4YftT1gbpNAjTds6DtlQttjyzouGdDzysPx7wLcNSnAMd8C3DcvwjH/ItxNKAUuv4l0PErwQHvIuz1yscut1zsdMvFLudsbLNNwWazKKw97IHPZm/AS8MmwtM/Fi232hX9YL1dkPX2iDKzJwkUmccYlZWVLYBi+4fd5QSJ/UnsV6IrpAukO2RfEt2cxC5myfmd3Ris5WNpmZmZhSgHYxdISUmpYFRYeDD8/D2FiKirr8XNpmtoa2/CrdZGtLY1CZfHGEXXx1GSnF/JyckRx48fhaOjPZYvXyamS+CEJUOuXr8B1a178MyL7+En9ZPYpB+MTcbRWH08BGoW8dCwT4WWWzZ0PLJxyDMbJ/wLYRhUCqPgUhiFlIEdhSZhFTCJ4HIORuGVOBFSDt0AAlaM/d4F2OeVj602ydhml4LdjhnYYhyJtYc98dw7kzFj3krUX+WkUmxbdQqguqQ2lSQu7rN+FHenfC6BYj/R+PETRTnXpk1bsH37Tvj5BYiqI9aa0xVK1UasxeM2gWFFEeMUwaLaYx0Eq5SYPed3iolvvpmDgEBfREWHIjUtAdeu16Gp+boAqLXtplhLQoKuLj09FUZGBtDWPggdnYNwdXWGqup6kYXntAtDCsvPY+TnUzH8i/lQO+YJNZMobDE9jWWH/bDLJhXabrkCJD3vXHAxCS2FeUQ5LCIrYBVZgVNRFbCKroBldCUsYyphHkXAymEQWooTwSU44l8AHZ88rDMKhfqpOOx1TMc2y3jsOpWAsQu243/+7x2ER8VDLuNI9fZ/GlCsEGI9HgsobW3tERgYLFjCmr7KynMi+UqhQYaRaQSUBZqsJlq5UgUseKErpJhg18bMmTPh5++NmNgIIb35IioY1SxAYoyqra0RqaTk5ESkpCQJSa6trYVDh7Th5uaCJUsWi+Qus+5DfCPi8fwbn2Lykm3Yqh+AbWaxWHsiDKqGUdjnkIETgSU45psP/YBC6AcUwCLiLKyjKmATXQm72HI4xFXCIe4cbGMrxHIq+iwsokphGl4Co9BCnAw4g2M+WdhkEICtJmHYZZOInXap2GGXhkU7LfGXoR9jx+4DaGtt7gOqG2TU7+H6yCgW97NAUmKUqupGUdZFV8Z+Jvbekj0sVWYvLlnF7AoLWDiAm26PbpM1fKxMIuPS0zMwceJExMZGi7jU3NIImawLPfJOdMs6cOPGVVRWliM//4zIrmdlZSAhIQ6GhvrQ0tqPgwcPCKA4lQ8nN+E8FkN0jG3w5zc/x+LtBlAzDsVWk2ioHA3GHod06PS5PP2gEpiE0s0Vw+Y0gamEU/x5uCSdg1tKFdxTquGWXCUWp4RK2MSWwjKyGKah+TAKzIWBbyb2WkViw0k/aDqlCZC2O2RhzXE/vD9pEUZ9MQWVlWcVQIFA9QqgGPAHqryB35Xd2cBtXn+vj+T6WLnKalaKAro7AkajU9GxWpaxioCxZFmqR+fQm5s3FZkDjpti7y1VH69h3Z6pqZmY4YyMkfV0oLWtWYiHxsbroPSuqjqHoqICFBTkiZwfu0Hi408LoMimY8f0hJhYvny5mIzr4sWLGLJ4rTqeeWcMftK0grppOFT1w7DeIAyazhnQ8cgRqs4otAymYaWwiCiFfVwFXJPOC3A80y7AK70aPuk18BbbNfBIrYZTfDnsYstgFVEE06B8mATmQdsxHuuP+eCAUzq226Zhm0MW1huG4LO5KnhjxCdISkpAT0875KLnlwDdWfAyECDxXQmHgaAQIyo2RZ0cpxtoRxtTVn2DzQgUO/mkqtWjR4+LSla6MMYguj8aX+pOZ+xhzGJtOkElw65cqQNLvrhwfibW8l27dl3UQ8THxwklJ5NxvqV2XL1aL2T3+fOVOHuWgqNISHCmkVg/ERd3Gs7OzjAxYXGMO0xNTTBu3Dgh0QVQ742bjr9+OAkrtGywzSISqgYhUDUMh6ZzJg555uKYfwqr6EoAABKsSURBVAGMQktgGl4M65gyOMVXwj2lCgTJO7MGflkXEZBVC//Mi/DNrIVPZi1cEsm6ClhHlcIspBBmwYXQdU3BuqM+2GeXDA3HLKjZpGOjSTgm/LAVf39rJGJPRwPyDvT2yhQsepjMhBJQyswhCHRPTIlxodSmi2IPLFnCOMNGKlMzbAMxxowePVaUfLE9RSCo/DiMho1ctp/oJhmX1qxZJ4QDC1vYUUilyO4KzmFBsKT5LZijo+y+fp3tsRoBDAEqKysR2+zqYKdienqa6Jfi/ICcx4LZdE5cQpA48SPvLTITQ0d+jmGTFmCzvid2WcdgPYEyCoOWW5ZoHx33K4BxaAnMI0thF1cB54RzAiiv9Br4ZV+Cf85lBJ6pR2D2FQRm18E34xJcEs7B/nQFrBirQgthzAy7Vw7WHfXDDqsE7HHOgbptGraYR2G6yh786cU3EB4Rjt6eRweKTBKZjQGgcT+z3JTLVGWsAadQ4LglZhCYSaAoYMwha8gogsVzKcO5pKSkiQYuCyw5vIbn0S1yZMb06V9j2bIVgn2Uz5y+lNPKcYJGTh7CRioBIjh0cYxHXCt6d/ORlpYihARngSFInLuW06tylk22ncgu9gITJH6GDB05GqPmroSakQ92nIoWQG0yiYA220ve+TgZUATjkBKYR9wGyjOtBr5ZBOkKgnMbEJZ/HeF518TaP7MeLglVopTMOvIsTENLoO+fh6PeuVA9EQh1yzgB1Da7dGw0i8LsDYfwzNDhCOKUoo8IFHOEBIld6ewSYMeb6LLo5IzN10SFEAGaOHGyKEWmq2PNHROw77//oWio0hDsBGSOjm7tpZdeEe0hujZWt7LNREbR9RFcDv9k45Zs+uCDjzB8+EiMGTMWBgYGwricGZNgcRJiujTWTEhLTk6OOMZaCtb1cRZOTtXD2j6Kj6FDh4rZzDgNENlOz6B4EXsx5B8fjsPHs5ZB9aQHtpqHY/VJf2wwDoWWWyb0vPMUQAWXwCysFKciy+AYVwH35Cp4p12Eb3otArPqEZTdgCCuMxvgm3YZrglVcIg9B+vIcpiHlMAgIB/HfM5AVT8YW81jsdsxEwRqs9VpTF13EH96dQSCwiPQ09Mh+qdEQvYhXJ9I5vaBpHB1PWJQNA3LLAHzeCyWZKwhKwgGFyZjWWM+c+ZsrFixSrg0Vgg1NFwVdXozZszEggULRaaCKo5uj/ckUKyGpbujK+XCVNKyZYqGKadL5bSpnMWMANwNKLJEmiaVs0RTMLCHl9PJkVl0nSyHlnp5+4F6Z9QEjJy2FKv1nLHZIgzLj3lhvUkINF1S+xu4LFk2Di6CVXgZ7GMqhGvzSr4ILt7JF+GbwlKxWrF4JtbAJU7BqFMRZwVQxkGF0PPKwSajUGwyicJ221So2aVhk1UsJq7Zj/95ZRgCwsKFfGVNoSQU7ioglBq/YlRjP5tkgkVs93BIC8faMsbQyDQwXRfzd5TYUpkxh34yJjHfx7hEUOgKExOTBas4HpeKkBKdYDNecagnXSTrxTnmiaMLg4KCxWyYnGP2tddeE52BnHR4IFBkFsHgxMScFnXEiBFi6lTGJs7oyT4yzqvERfr0AzVs9GQMm7gAq484YJNZIJYf94KqeSg0HBOh7ZaJo36F0A8sgVFQCSzDymAbcRaO0RVwi6uGR8IFeCRUwz2+Cu5xF+B2uhpucRfgGH0eNpGVMA8tg0FAkWCTrmc21M2isMEwAluskrDZJgWqFjGYsl4H//PKSHgFhqCbPb+iLv3BslwCkSqO45r4prPBykHSHN5JoxIYJklZrUqA+J2MYr6O2xQUzNlxwDSZxdHvzOkxNUTJbWVlLUYPEhS6RQLOITIckPb66/8QbpLjedXVt4n4xIkYOeMzZ4omSHSBBIEzk8XFxYkuC04fxzlwFy9eLACVABK/u68TV9qWQOJ6yMQ5i/HqqOlYedASGww9seqEBzZYhGKnYwIOuGXiiG8RjvuXwCCoDKbMSoSVwSqyHPbRlXCMPQen2HNi7RBdDsfoShGbTkWUwTy0GIaBCpCOeGXjoFs61CyisdYwAhss4rHBJhVrzaIwdb0O/vjqe3DzDRJ+mW+SBMLDrJnpZhuHwzEXLlwsuh+kzj1WqBIIdvRRnjNrwO9SiRcVHzv56PLIODZYyS4CQ6ZQPJBJVIWffDJKjHGSSpgJGBUgh8w899xzeP311/H9999j1qxZYtbN4OBgkbsjaOxu19HRETNJjx49Wsz3RxfHGco4pyCBkMBRXt8B1C6to3juzVFYuPUwdpr7YaWeM9aZBGCHYzz2uKRhv0cuDnkX4mRQGQxDSmEcWgoT0aY6C6uIclixPCyiDJbhpbAIK4FFeJlQifqBhTjmdwaHCZJ7BjRdU7HJPBIqBmFYZ34a662TsdokElPW6uBPr37QB5Siru1hAJLOoauiAiMbKJ9pXBqdoFCWk0F0f2ykEkAyhWseJ6MIFsEmK3kvso3tqFGjPhcNYMp5Hqf7Y2OYDWQOQGO2gqKCIxOPHNETqR7OkEnVxv9oQDYRIKpBTjg8adIkMcszhQTnVZemp6O743dlgKTtO4AKiojFX197H2PnLMeGI9ZYqWuL1QaeULeLxl63DGi6n8F+jzwc8i3EsZASnAgtwcnQEhiGlYrFiMBEnIVxWBmMQrmvDCdCSqAXWAAd31zs98jAPrc0aLgkY71pOJafCIaKaQzWWCZipUEYJq/WxjOvfQB3HzKqbzpqpTgkAXKvNQ0+b953QoVRYjP7TVAIAplDN0bjExyCSEnObAKP0x1yzew4QeKYXJ7P69ntwdQSAWMekNmJ69dviEYvAfvoo08wadIUMfqdrOHCKUw5aT5dIIeYciL8UaNGibnWWWzJuQWpTLlQLCgvEjjK6zuAunKlAfMWr8Tf3v4E4+atwJxNB7BUyxxbrEJETYSabRK2OaRBwy0L2n550A0qhG5gAfQoEIKLcTSkWAB4lNvBxWLf4aAi7PfLw16vHOxwScN2p2So2ydilWEYluoF4mejKKxk4vd4IMYv24s/vDwCbn4hosBFuIFHAIpvO10eWcWYwj4ldluwa50AsYaBGQoOHiOojFcKozeKKiK6Rd6D0p2gcZvxizKf11KmcwTil1+OFy6WQBJYCg+2o5h9f+mll0VOTldXV6ypAsku5uoYq1ijzoUiQZLdyoBwWxmUu20P6WjvRFZuEX5evQXPvvgmnnl1GIaPn4ONx+yw1SIIu51TscUmEeoOaaLX9oBPAfb75EPLtwAHffOh7V8IHb8iaPsWiIX793nnY7dHLra5ZmGLYxo22iZjq2MGlhwLwYw9LvjZOAYrTGKhoh+I8T9txzOvvQf3gFBwfgqWrokH7avdZTv2fgtL25KSUrFNfaeYOYVxg+kfym/m3MLCwgVLFEX9HLrZIRhFg9MtkkVkmdT4JUjsGCRgZCHXBJwvAJlL2c5hnDzGbDqB9/DwxLZt2zFlylQxuwvbbr6+fqIaSZGyYqZEMeGIYmB332+UfqtSo11qvEtrSf0NYYuR5VrFZefgExCKn1auxv+++BqmLl6NtXq2WG/oh3XMejNHZ5eKXU6Z2O+ZL9yhpkc2NFnD556LfW5ZYtnjnoOdrllQd0jHJvsUrLdOwBqLOKjapGCRXhC+3uOKZYbRWGEYiVXHvfDJ3OX439dGwj8yFp2c+El+e6Zj6SHvt+YPYuEkmUEBQHYxI07pzCpUK6tToruCwoLGJXMURm4XANLlMZZRbEis4j7GMoJG9tEVElS2xZi5oPzfvHmrUIEKV8bxuy1CabIXmOqQqSuConDnikHUosZdaYIsCYx7rZV/9xBmP1kgz5twMHTF+XP4YZUK/vuvr+JvH3yF0Ys3YYWOHTYZ+mO3TQx2Wsdgr30iDrqkQdMpEXsdErDHTrGwhmKXfRLUbeKwxTIWGyyiscEiBhvNYqByMhg/H/HGz0d88LOuN5bpeuJb9eN4/r1xmLpgGYoqL6CTkyGKMcSKN075Qe+2LdykUoOXRmNnHrsoaEzGEOb32PZh8Keqo1yn8iMQEpskEAgI4xcB4sKcoMQuvghkI6+lwGAqiXMfsRueINFVkt2S0QkUsyX3Auduv+d++xRAyUQaQJRoXW+8iUsN1+ARGIwPxk3GH18ZgWde+wjDJn6PZbv0oX7CGTsMPKFh6os9ZgHQMA/CbrNA7LEMhZpxIDYZ+GKjgS82Gfhjs2EAthoHY7tZKNbqeWCJhgWWaphDVc8Z3248gqGj5+K1TyfDPThGzPZCRin76/s9OI9JvpzbCp+vSCXRYCww4YwpI0a8J9Qa33RmFNgNwRweuy9YqMK4RdFB9UcQyC4anvtZCUuwJKHB88kwgshxuFR/FBYEnYwcCIwySNK2BOSDftvA4wKovj4FyJkvk8lEjV8zXUFdHSzt3bBUZRM+GDsdz7/+IV4eMQ6fTF2I6Us3YpGqJlR2H8eafYZYt98UGw/ZYJOuHbYcc4LaCRdsPGyL1ZpmWL7zJMbNX4+3v5iHN0bNxPCxc/Hcm5/hnc+nw8jeG3XNHWjrVsyfNPAB7/ddAoprfriisaSsOQ1MCc12EdNCzM8x10eWETQKAipBsoyDoAkKYxf3cU3GkUkEkgDW1dWLNb+zQc3sBxvZPOdRQOp73Pv9tF8cU4yPUnT+iB8qgjlVF+cv6mGxugwN15pQWFYFV+8QbN6phfc/m4T//MvL+O9nh+LPL4/A39/9DENHjsPbn03HsDEz8e7oGRg2ZhbeHTUdrwz/As+8NBz/8cwreOmNj/DsS8PwzAtvYNqcJYhJPoNrtzrRKuMLohgoIBn9F0/6gB3iefvdjWI0OoM9+6AoCDj3HhuzzCSw/IvJVgoOTqFD10fFR7dJthBgCSiyhbGLjCHD+J3SnQ1eKkFKdzJQYsz91hKbfhVQd7yVfdno/pJjFvHLqFg4JohLL5pa2nHhYj0ysgvg4OaLnfsOYcHSlZg683uMmTATH4+djHc/HCOWT8dMxrRZ32GFykYEhcTgQm0DKs7VourCFVy/3oLmW53okkEsnKlM8UMUL8nDAib9eMXwmdsxQRHEFbGXxxhfGG/Yj/Tpp59h1arVImZRwXEfZwqTlBw7/8gwModgEyAulOuMTxQqzFSwScDUFXOHZNSDWCU962MBSrwRDIKyXvR0sz58wML9PRDzGnUzz9bZhRYG4IZGXK6rR3VNLc5WVKG8sgoXLtaK9ExTUyvabnG03m2JKkYpUMT0CRmx5ig2MQnhw4kJkkz5x3P7fm80AaPBqco40xezDASMaSG6SLKL3RmMVxQWBIpsYexibGLCl26U13H6HDKV0/LwpfqXA4qG4NvKPpyOrk70cOpqTqbBbu8+18O3kCpIvDk0nowjGXvR3topXgAZBwd09fS/BNLL0asE1AM8Xf9hZaDuBOk2u7if59F9sSiF22w3cVIqzkXE9BNdGFUhp2+jkiOYdIcEjnGNgNLVsa6CxSucTodMYjzk/R4ElPJzcvtRP2Ig2y/cXx+j5DIaWcGu/nVfO4A/vn+4DCWy0tJvMLJl4PUDvnPqJZ4jpmDqi5WP+iOk8wcaY+D3/ucSkl4u3Bpr8JgZZ1KXkp5MobxnZRGz6qz1o6tk77A0kED6exI4ymvlvzFwW/l5pHs87PquQEkq8G5r5T/W38Gn8FiKERj9c6eKNLg00Enh0vre7Dvuy7dLAkhaP+zTDzhP+dnEtlIPML/TcDQq12QXX1Cyn6xgY5bTk7LHlqM7yDK2wxiLmJqiwGAqigUsipikaCdJ95NA+cUzKNlD+diAR3/g10cGSjKq8h990LZ0TV+x3i+AUWb0E90mcH1LD0VSFwfu9YLDf+iaW5pvwd8vEKtV1mDC+InQ3LcfOdln0N7Wie5OGXgNrxfDhei66QlEwqBXxFpu9//We2wrbHW3FNL99/1qoPhADwJI+fj9fsATBUcpn/aLZ5DYrKj2FEaWd/XiVnMrrtZfQ3trh9gnuWfJjVNgSdtMRP7Cdd8DJIXN7g/IvWzxC6DudeLd9j+Qr0on3O3633vfL4AaYFAKHDKM7CLbyCIuEih3W/8W4z/K7/+3Aup+hhEGZ9Dlh96CgImljzEDQFUG/X73fVzHBoHqc42S4dktIW1LazJJ2r7b+nGBcb/7DAIlAdUXrwaCckez4R6supuBlZPLdzv+qPsGgbqH2HhUQz7p8weBojQVCvZO9/akDf+o9x8ESgkoGk+KQY9qyCd9/iBQSq7vSRv7t9x/EKh/B6B+yxsyeO2jZSh+E6MGjf1oxv4t9hoEatD1/X5v2295U5+WawcZNcioQUY9TrYOMmqQUYOMGmTUU8KCQaAGgRp0V4+TBY/zXoNi4ilh5yBQg0ANutFB1/eUsOBxAvX/AVRsoyvpw5OEAAAAAElFTkSuQmCC;" parent="1" vertex="1">
          <mxGeometry x="404" y="145" width="106.5" height="106.5" as="geometry" />
        </mxCell>
        <mxCell id="HYDjPXDBDwbA59rt-lU1-13" value="Web Server" style="aspect=fixed;pointerEvents=1;shadow=0;dashed=0;html=1;strokeColor=none;labelPosition=center;verticalLabelPosition=bottom;verticalAlign=top;align=center;fillColor=#00188D;shape=mxgraph.mscae.enterprise.web_server" parent="1" vertex="1">
          <mxGeometry x="502" y="486" width="66.12" height="87" as="geometry" />
        </mxCell>
        <mxCell id="HYDjPXDBDwbA59rt-lU1-14" value="手机" style="aspect=fixed;pointerEvents=1;shadow=0;dashed=0;html=1;strokeColor=none;labelPosition=center;verticalLabelPosition=bottom;verticalAlign=top;align=center;fillColor=#00188D;shape=mxgraph.mscae.enterprise.android_phone" parent="1" vertex="1">
          <mxGeometry x="215.9" y="153" width="46.2" height="77" as="geometry" />
        </mxCell>
        <mxCell id="HYDjPXDBDwbA59rt-lU1-15" value="Java Server" style="aspect=fixed;pointerEvents=1;shadow=0;dashed=0;html=1;strokeColor=none;labelPosition=center;verticalLabelPosition=bottom;verticalAlign=top;align=center;fillColor=#00188D;shape=mxgraph.mscae.enterprise.application_server" parent="1" vertex="1">
          <mxGeometry x="350" y="488" width="71.38" height="83" as="geometry" />
        </mxCell>
        <mxCell id="HYDjPXDBDwbA59rt-lU1-17" value="文件服务器" style="verticalLabelPosition=bottom;aspect=fixed;html=1;verticalAlign=top;strokeColor=none;align=center;outlineConnect=0;shape=mxgraph.citrix.file_server;" parent="1" vertex="1">
          <mxGeometry x="213" y="305" width="71" height="97" as="geometry" />
        </mxCell>
        <mxCell id="HYDjPXDBDwbA59rt-lU1-38" style="edgeStyle=orthogonalEdgeStyle;rounded=0;orthogonalLoop=1;jettySize=auto;html=1;entryX=0.235;entryY=-0.031;entryDx=0;entryDy=0;entryPerimeter=0;" parent="1" source="HYDjPXDBDwbA59rt-lU1-18" target="HYDjPXDBDwbA59rt-lU1-30" edge="1">
          <mxGeometry relative="1" as="geometry" />
        </mxCell>
        <mxCell id="HYDjPXDBDwbA59rt-lU1-39" style="edgeStyle=orthogonalEdgeStyle;rounded=0;orthogonalLoop=1;jettySize=auto;html=1;entryX=0.479;entryY=0;entryDx=0;entryDy=0;entryPerimeter=0;" parent="1" source="HYDjPXDBDwbA59rt-lU1-18" target="HYDjPXDBDwbA59rt-lU1-30" edge="1">
          <mxGeometry relative="1" as="geometry" />
        </mxCell>
        <mxCell id="HYDjPXDBDwbA59rt-lU1-40" style="edgeStyle=orthogonalEdgeStyle;rounded=0;orthogonalLoop=1;jettySize=auto;html=1;entryX=0.75;entryY=0;entryDx=0;entryDy=0;" parent="1" source="HYDjPXDBDwbA59rt-lU1-18" target="HYDjPXDBDwbA59rt-lU1-30" edge="1">
          <mxGeometry relative="1" as="geometry" />
        </mxCell>
        <mxCell id="HYDjPXDBDwbA59rt-lU1-18" value="Nginx Server" style="shape=image;html=1;verticalAlign=top;verticalLabelPosition=bottom;labelBackgroundColor=#ffffff;imageAspect=0;aspect=fixed;image=https://cdn4.iconfinder.com/data/icons/logos-brands-5/24/nginx-128.png" parent="1" vertex="1">
          <mxGeometry x="395" y="307" width="102" height="102" as="geometry" />
        </mxCell>
        <mxCell id="HYDjPXDBDwbA59rt-lU1-19" value="Java Server" style="aspect=fixed;pointerEvents=1;shadow=0;dashed=0;html=1;strokeColor=none;labelPosition=center;verticalLabelPosition=bottom;verticalAlign=top;align=center;fillColor=#00188D;shape=mxgraph.mscae.enterprise.application_server" parent="1" vertex="1">
          <mxGeometry x="218" y="488" width="74.82" height="87" as="geometry" />
        </mxCell>
        <mxCell id="HYDjPXDBDwbA59rt-lU1-28" value="" style="rounded=0;whiteSpace=wrap;html=1;fillColor=none;" parent="1" vertex="1">
          <mxGeometry x="111" y="145" width="534" height="106" as="geometry" />
        </mxCell>
        <mxCell id="HYDjPXDBDwbA59rt-lU1-29" value="用户端" style="text;html=1;strokeColor=none;fillColor=none;align=center;verticalAlign=middle;whiteSpace=wrap;rounded=0;fontSize=17;" parent="1" vertex="1">
          <mxGeometry x="640" y="187" width="72" height="20" as="geometry" />
        </mxCell>
        <mxCell id="HYDjPXDBDwbA59rt-lU1-43" style="edgeStyle=orthogonalEdgeStyle;rounded=0;orthogonalLoop=1;jettySize=auto;html=1;" parent="1" source="HYDjPXDBDwbA59rt-lU1-30" target="HYDjPXDBDwbA59rt-lU1-1" edge="1">
          <mxGeometry relative="1" as="geometry" />
        </mxCell>
        <mxCell id="HYDjPXDBDwbA59rt-lU1-44" style="edgeStyle=orthogonalEdgeStyle;rounded=0;orthogonalLoop=1;jettySize=auto;html=1;" parent="1" source="HYDjPXDBDwbA59rt-lU1-30" edge="1">
          <mxGeometry relative="1" as="geometry">
            <mxPoint x="456" y="661" as="targetPoint" />
          </mxGeometry>
        </mxCell>
        <mxCell id="HYDjPXDBDwbA59rt-lU1-30" value="" style="rounded=0;whiteSpace=wrap;html=1;fillColor=none;" parent="1" vertex="1">
          <mxGeometry x="115" y="477" width="541" height="127" as="geometry" />
        </mxCell>
        <mxCell id="HYDjPXDBDwbA59rt-lU1-35" value="集群" style="text;html=1;strokeColor=none;fillColor=none;align=center;verticalAlign=middle;whiteSpace=wrap;rounded=0;fontSize=17;" parent="1" vertex="1">
          <mxGeometry x="656" y="530.5" width="46" height="20" as="geometry" />
        </mxCell>
        <mxCell id="HYDjPXDBDwbA59rt-lU1-36" value="" style="endArrow=classic;html=1;" parent="1" edge="1">
          <mxGeometry width="50" height="50" relative="1" as="geometry">
            <mxPoint x="248" y="251.5" as="sourcePoint" />
            <mxPoint x="248" y="307" as="targetPoint" />
          </mxGeometry>
        </mxCell>
        <mxCell id="HYDjPXDBDwbA59rt-lU1-37" value="" style="endArrow=classic;html=1;" parent="1" edge="1">
          <mxGeometry width="50" height="50" relative="1" as="geometry">
            <mxPoint x="445.5" y="251" as="sourcePoint" />
            <mxPoint x="445.5" y="306.5" as="targetPoint" />
          </mxGeometry>
        </mxCell>
      </root>
    </mxGraphModel>
  </diagram>
</mxfile>
